<?xml version="1.0" encoding="utf-8"?>
<!-- Generator: Adobe Illustrator 19.2.1, SVG Export Plug-In . SVG Version: 6.00 Build 0)  -->
<svg version="1.1" id="Layer_1" xmlns="http://www.w3.org/2000/svg" xmlns:xlink="http://www.w3.org/1999/xlink" x="0px" y="0px"
	 viewBox="0 0 279.8 98.4" style="enable-background:new 0 0 279.8 98.4;" xml:space="preserve">
<style type="text/css">
	.st0{fill:#FFFFFF;}
</style>
<g>
	<g>
		<path class="st0" d="M55,70.1l-0.3-1.3c0,0,0.1,0.9,0.1,1.3v25.3c0,1.1,0.5,1.8,1.3,2.2h-4.4c0.8-0.4,1.3-1.1,1.3-2.2V66.3
			c0-0.9-0.7-1.8-1.5-2.2h4.7l11.7,28l11.8-28h4.4c-0.8,0.4-1.3,1.1-1.3,2.2v29.1c0,1.1,0.5,1.8,1.3,2.2h-5.7
			c0.8-0.4,1.3-1.1,1.3-2.2V69.2c0-0.6,0.1-1,0.1-1l-0.3,1L67.1,98.4L55,70.1z"/>
		<path class="st0" d="M108.6,67.5c-0.9-1-2-1.7-4.3-1.7c-0.4,0-8.5,0-8.5,0v12.3h8.6c0.7,0,1.5-0.8,1.7-1.4v4.4
			c-0.2-0.6-1-1.4-1.7-1.4h-8.6v15.8c1.1,0.1,2.8,0.4,5,0.4c6.4,0,8.1,0,9.8-3.1l-0.8,4.8H91.3c0.8-0.4,1.3-1.1,1.3-2.2V66.3
			c0-1.1-0.5-1.8-1.3-2.2h17.3V67.5z"/>
		<path class="st0" d="M116.8,95.4V66.3c0-1.1-0.5-1.8-1.3-2.2h11.3c16.5,0,18.5,12.4,18.5,16.2c0,7.2-5.1,17.4-19.9,17.4h-10
			C116.3,97.2,116.8,96.5,116.8,95.4z M120,95.7c2.4,0.1,5.2,0.1,7.2,0.1c11.4,0,14.7-8,14.7-15.6c0-6.3-3.6-14.4-13.9-14.4
			c-2.4,0-6.5,0-8,0.1L120,95.7L120,95.7z"/>
		<path class="st0" d="M152.7,66.3c0-1.1-0.5-1.8-1.3-2.2h5.7c-0.8,0.4-1.3,1.1-1.3,2.2v29.1c0,1.1,0.5,1.8,1.3,2.2h-5.7
			c0.8-0.4,1.3-1.1,1.3-2.2V66.3z"/>
		<path class="st0" d="M163.2,81c0-8.2,6.3-17.3,18.9-17.3c4,0,7.8,1.4,11.7,3.1c0,0,0.5,7.2,0.4,7c-3.4-7.7-9.8-8.6-12.1-8.6
			c-10.4,0-15.2,7.2-15.2,15c0,7.6,4.2,16.2,14.7,16.2c2.2,0,8.6,0.5,13-8.4c0-0.1-0.5,6.5-0.5,6.5c-4.1,2.7-9,3.6-12.4,3.6
			C171.8,98,163.2,91.1,163.2,81z"/>
		<path class="st0" d="M202,66.3c0-1.1-0.5-1.8-1.3-2.2h5.7c-0.8,0.4-1.3,1.1-1.3,2.2v29.1c0,1.1,0.5,1.8,1.3,2.2h-5.7
			c0.8-0.4,1.3-1.1,1.3-2.2V66.3z"/>
		<path class="st0" d="M218,97.6h-4.4c0.8-0.4,1.3-1.1,1.3-2.2V67.3c0-1.1,0-1-0.3-1.5c-0.5-0.7-1.1-1.3-2.2-1.7h5l20.8,26.3V66.3
			c0-1.1-0.5-1.8-1.3-2.2h4.5c-0.8,0.4-1.3,1.1-1.3,2.2v31.8c0,0-23.3-29.1-23.3-29.6v26.9C216.6,96.5,217.1,97.2,218,97.6z"/>
		<path class="st0" d="M265.4,67.5c-0.9-1-2-1.7-4.3-1.7c-0.4,0-8.5,0-8.5,0v12.3h8.6c0.7,0,1.5-0.8,1.7-1.4v4.4
			c-0.2-0.6-1-1.4-1.7-1.4h-8.6v15.8c1.1,0.1,2.8,0.4,5,0.4c6.4,0,8.1,0,9.8-3.1l-0.8,4.8h-18.4c0.8-0.4,1.3-1.1,1.3-2.2V66.3
			c0-1.1-0.5-1.8-1.3-2.2h17.3L265.4,67.5L265.4,67.5L265.4,67.5z"/>
	</g>
	<g>
		<path class="st0" d="M35,21.7V3.9c0-1.7-0.8-2.7-2-3.3h8.7c-1.3,0.7-2,1.6-2,3.3v43.7c0,1.7,0.7,2.7,2,3.3H33c1.2-0.6,2-1.6,2-3.3
			V24.1H6.7v23.5c0,1.7,0.7,2.7,1.9,3.3H0c1.2-0.6,1.9-1.6,1.9-3.3V3.9c0-1.7-0.7-2.7-1.9-3.3h8.6C7.4,1.3,6.7,2.2,6.7,3.9v17.8H35z
			"/>
		<path class="st0" d="M56.3,4c0-1.7-0.7-2.7-1.9-3.3H63c-1.2,0.7-1.9,1.6-1.9,3.3v43.7c0,1.7,0.7,2.7,1.9,3.3h-8.6
			c1.2-0.6,1.9-1.6,1.9-3.3V4z"/>
		<path class="st0" d="M74.2,12.4c0-7.8,7-12.4,14.5-12.4c2.8,0,6.7,0.7,9.8,3l0.4,8.5c-0.6-3.2-4.7-9.2-11.5-9.2
			c-7.1,0-8.7,5.2-8.7,8.4c0,4.7,2.6,6.7,10,10.6c7.4,3.8,14,6,14,15.5c0,9.3-8.8,14.7-15.5,14.7c-6.3,0-10.6-3-13.2-4.7l-0.3-9.5
			c1.8,5.3,5.5,11.8,13.5,11.8c8.7,0,10.5-7.3,10.5-11c0-7.1-4.2-8.8-11.8-12.4C78.4,22.3,74.2,18.8,74.2,12.4z"/>
		<path class="st0" d="M129.2,47.6c0,1.7,0.7,2.7,1.9,3.3h-8.6c1.2-0.6,1.9-1.6,1.9-3.3V3.2c-5.5,0-12.4,0.4-12.4,0.4
			c-1.9,0.1-3.3,1.7-4,2.9V0.7h37.3v5.8c-0.7-1.2-2.1-2.8-4.1-2.9c0,0-6.7-0.4-12.1-0.4v44.4H129.2z"/>
		<path class="st0" d="M146.8,25c0.4-11.4,10.5-25.5,27.8-24.9c12,0.4,26,9.7,25.5,26.3c-0.6,16.5-15.9,25.6-27.3,25.2
			C159,51.1,146.2,40.2,146.8,25z M173.5,2.5c-12.1,0-21.3,8.5-21.3,22.3c0,16.6,11.6,24.1,21.2,24.1c12.4,0,20.9-9.2,20.9-22.3
			C194.3,12.3,185.8,2.5,173.5,2.5z"/>
		<path class="st0" d="M216.2,51h-8.7c1.2-0.6,2-1.6,2-3.3V4c0-1.7-0.8-2.7-2-3.3h11.8c14.4,0,17.2,7.9,17.2,12.2
			c0,8.1-6.9,12.2-11,12.7c3,0.8,4.9,3.8,6,5.5c0,0,7,12.9,10.9,16.9c1.6,1.7,4.8,3,4.8,3l-5.8,0.1c-2.8,0-4.4-2.1-5.3-3.4
			c-4.4-6.5-6.4-10.1-9-14.3c-1.8-3-3.3-6.1-7.7-6.1c-1.8,0-5.3,0.1-5.3,0.1v20.3C214.2,49.3,215,50.4,216.2,51z M220.8,3
			c-4.4,0-6.7,0.3-6.7,0.3v21.5c0,0,2.5,0.1,5,0.1c6.3,0,12.3-3.9,12.3-11.8C231.5,9.3,229.2,3,220.8,3z"/>
		<path class="st0" d="M258.7,26.9L245,4.2c-1.1-1.7-2.2-2.5-4.3-3.6h12c-1.8,0.7-3.3,1.1-1.3,4.6l11.2,18.5l10.2-19.5
			c1.3-2.4,0.5-2.8-1.3-3.6h8.3c-2.1,1-3.1,1.8-4.1,3.6l-11.9,22.5v20.9c0,1.7,1.4,2.7,2.6,3.3h-10.3c1.2-0.6,2.7-1.6,2.7-3.3V26.9
			H258.7z"/>
	</g>
	<g>
		<path class="st0" d="M1.1,86.3C1.3,81.4,5.6,75.4,13,75.6c5.1,0.2,11.2,4.2,10.9,11.3c-0.3,7.1-6.8,11-11.7,10.8
			C6.3,97.5,0.9,92.8,1.1,86.3z M12.6,76.7c-5.2,0-9.1,3.6-9.1,9.6c0,7.1,5,10.3,9.1,10.3c5.3,0,8.9-4,8.9-9.6
			C21.5,80.8,17.8,76.7,12.6,76.7z"/>
		<path class="st0" d="M27.4,75.9h11.8v2.2c-0.5-0.7-1.3-1.1-2.9-1.1c-0.5,0-6,0-6,0v7.9h5.5c0.4,0,1-0.5,1.1-0.9v2.8
			c-0.2-0.4-0.7-0.9-1.1-0.9h-5.5V96c0,0.7,0.3,1.2,0.9,1.4h-3.7c0.5-0.3,0.9-0.7,0.9-1.4V77.3C28.3,76.6,27.9,76.1,27.4,75.9z"/>
	</g>
</g>
</svg>
